<?xml version="1.0" encoding="utf-8"?>
<!-- Generator: Adobe Illustrator 25.1.0, SVG Export Plug-In . SVG Version: 6.00 Build 0)  -->
<svg version="1.1" id="Layer_1" xmlns="http://www.w3.org/2000/svg" xmlns:xlink="http://www.w3.org/1999/xlink" x="0px" y="0px"
	 width="36px" height="30px" viewBox="0 0 36 30" enable-background="new 0 0 36 30" xml:space="preserve">
<g>
	<rect id="canvas_background" x="-1" y="-1" fill="none" width="38" height="32"/>
</g>
<path fill="#0071BC" d="M11.6,7h13.2C25.4,7,26,7.6,26,8.3v0c0,0.8-0.3,1.6-0.8,2.1l-9,10.1H26c1.4,0,2.5-1.1,2.5-2.5V7
	c0-1.4-1.1-2.5-2.5-2.5H10C8.7,4.6,7.6,5.7,7.6,7V23c0,1.4,1.1,2.5,2.5,2.5h14.7c1.4,0,2.5,1.1,2.5,2.5v0H10c-2.7,0-4.9-2.2-4.9-4.9
	V7c0-2.7,2.2-4.9,4.9-4.9H26c2.7,0,4.9,2.2,4.9,4.9v12.3c0,2-1.6,3.7-3.7,3.7H11.8c-1,0-1.8-0.8-1.8-1.8v0c0-0.4,0.2-0.9,0.4-1.2
	l9.4-10.5H10C10.8,8.2,11.6,7,11.6,7z"/>
</svg>
