<svg xmlns="http://www.w3.org/2000/svg" viewBox="0 0 20 20"><path d="M3,2A1,1,0,0,0,2,3V21a1,1,0,0,0,1,1H21a1,1,0,0,0,1-1V3a1,1,0,0,0-1-1Z" transform="translate(-2 -2)" fill="#696d72"/><path d="M4,3V4H5V3ZM7,3V4H8V3Zm3,0V4h1V3Zm3,0V4h1V3Zm3,0V4h1V3Zm3,0V4h1V3Z" transform="translate(-2 -2)" fill="#fff"/><path d="M4,20v1H5V20Zm3,0v1H8V20Zm3,0v1h1V20Zm3,0v1h1V20Zm3,0v1h1V20Zm3,0v1h1V20Z" transform="translate(-2 -2)" fill="#fff"/><rect x="1.38" y="3.31" width="17.23" height="13.38" fill="#fff"/></svg>