<?xml version="1.0" encoding="utf-8"?>
<!-- Generator: Adobe Illustrator 25.0.0, SVG Export Plug-In . SVG Version: 6.00 Build 0)  -->
<svg version="1.1" id="Layer_1" xmlns="http://www.w3.org/2000/svg" xmlns:xlink="http://www.w3.org/1999/xlink" x="0px" y="0px"
	 viewBox="0 0 26 26" enable-background="new 0 0 26 26" xml:space="preserve">
<path fill-rule="evenodd" clip-rule="evenodd" fill="#696D72" d="M13,21c-4.4,0-8-3.6-8-8s3.6-8,8-8s8,3.6,8,8S17.4,21,13,21z M13,7
	c-3.3,0-6,2.7-6,6s2.7,6,6,6s6-2.7,6-6S16.3,7,13,7z M13,17c-2.2,0-4-1.8-4-4s1.8-4,4-4s4,1.8,4,4S15.2,17,13,17z M13,11
	c-1.1,0-2,0.9-2,2c0,1.1,0.9,2,2,2s2-0.9,2-2C15,11.9,14.1,11,13,11z"/>
</svg>
