<?xml version="1.0" encoding="utf-8"?>
<!-- Generator: Adobe Illustrator 25.0.0, SVG Export Plug-In . SVG Version: 6.00 Build 0)  -->
<svg version="1.1" id="Layer_1" xmlns="http://www.w3.org/2000/svg" xmlns:xlink="http://www.w3.org/1999/xlink" x="0px" y="0px"
	 viewBox="0 0 26 26" enable-background="new 0 0 26 26" xml:space="preserve">
<path fill-rule="evenodd" clip-rule="evenodd" fill="#696D72" d="M22,20.5c0,0.6-0.4,1-1,1H5c-0.6,0-1-0.4-1-1
	c-0.1-0.9,7.8-13.2,9.3-15.6c0.1-0.2,0.4-0.2,0.5,0C15.1,7.3,22,19.4,22,20.5z M7.1,19.5H19c0.2,0,0.3-0.2,0.2-0.4L13.7,8.8
	c-0.1-0.2-0.4-0.2-0.5,0L6.9,19C6.8,19.2,6.9,19.5,7.1,19.5z"/>
</svg>
