<svg xmlns="http://www.w3.org/2000/svg" viewBox="0 0 16 16"><path d="M16,16.4v4.2a.43.43,0,0,1-.4.4H10.4a.43.43,0,0,1-.4-.4V16.4a.43.43,0,0,0-.4-.4H5.4a.43.43,0,0,1-.4-.4V10.4a.43.43,0,0,1,.4-.4H9.6a.43.43,0,0,0,.4-.4V5.4a.43.43,0,0,1,.4-.4h5.2a.43.43,0,0,1,.4.4V9.6a.43.43,0,0,0,.4.4h4.2a.43.43,0,0,1,.4.4v5.2a.43.43,0,0,1-.4.4H16.4A.43.43,0,0,0,16,16.4ZM18.6,12H14.4a.43.43,0,0,1-.4-.4V7H12v4.6a.43.43,0,0,1-.4.4H7.4a.43.43,0,0,0-.4.4v1.2a.43.43,0,0,0,.4.4h4.2a.43.43,0,0,1,.4.4V19h2V14.4a.43.43,0,0,1,.4-.4h4.2a.43.43,0,0,0,.4-.4V12.4A.43.43,0,0,0,18.6,12Z" transform="translate(-5 -5)" fill="#696d72" fill-rule="evenodd"/></svg>