<?xml version="1.0" encoding="utf-8"?>
<!-- Generator: Adobe Illustrator 25.0.0, SVG Export Plug-In . SVG Version: 6.00 Build 0)  -->
<svg version="1.1" id="Layer_1" xmlns="http://www.w3.org/2000/svg" xmlns:xlink="http://www.w3.org/1999/xlink" x="0px" y="0px"
	 viewBox="0 0 26 26" enable-background="new 0 0 26 26" xml:space="preserve">
<path fill-rule="evenodd" clip-rule="evenodd" fill="#696D72" d="M20.1,17.9c0,1.4-3.1,2.5-7,2.5s-7-1.1-7-2.5c0-0.1,0-0.4,0-0.5v-7
	c0,0,0-0.3,0-0.5c0-2.5,3.1-4.5,7-4.5s7,2,7,4.5c0,0.2,0,0.5,0,0.5v7C20.1,17.5,20.1,17.8,20.1,17.9z M13.1,7.4c-2.8,0-5,1.1-5,2.5
	s2.2,2.5,5,2.5s5-1.1,5-2.5S15.8,7.4,13.1,7.4z M18.1,16.1v-1.8V13c-1.3,0.8-3,1.4-5,1.4s-3.7-0.5-5-1.4v1.4v1.8v1.2c0,0,2.8,1,5,1
	s5-1,5-1V16.1z"/>
</svg>
