<?xml version="1.0" encoding="utf-8"?>
<!-- Generator: Adobe Illustrator 25.0.0, SVG Export Plug-In . SVG Version: 6.00 Build 0)  -->
<svg version="1.1" id="Layer_1" xmlns="http://www.w3.org/2000/svg" xmlns:xlink="http://www.w3.org/1999/xlink" x="0px" y="0px"
	 viewBox="0 0 26 26" enable-background="new 0 0 26 26" xml:space="preserve">
<path fill-rule="evenodd" clip-rule="evenodd" fill="#696D72" d="M23.5,18.5c0,0.6-0.4,1-1,1h-5c-0.6,0-1-0.4-1-1l0,0
	c0-0.4,0-1,0-1.5c0-1.9-1.6-3.5-3.5-3.5S9.5,15.1,9.5,17c0,0.5,0,1,0,1.5l0,0c0,0.6-0.4,1-1,1h-5c-0.6,0-1-0.4-1-1
	c0-0.1,0-1.1,0-1.5C2.5,11.2,7.2,6.5,13,6.5S23.5,11.2,23.5,17C23.5,17.4,23.5,18.4,23.5,18.5z M13,8.5c-4.7,0-8.5,3.8-8.5,8.5
	c0,0.2,0,0.3,0,0.5h3c0-0.2,0-0.3,0-0.5c0-3,2.5-5.5,5.5-5.5c3,0,5.5,2.5,5.5,5.5c0,0.2,0,0.3,0,0.5h3c0-0.2,0-0.3,0-0.5
	C21.5,12.3,17.7,8.5,13,8.5z"/>
</svg>
