<?xml version="1.0" encoding="utf-8"?>
<!-- Generator: Adobe Illustrator 25.0.0, SVG Export Plug-In . SVG Version: 6.00 Build 0)  -->
<svg version="1.1" id="Layer_1" xmlns="http://www.w3.org/2000/svg" xmlns:xlink="http://www.w3.org/1999/xlink" x="0px" y="0px"
	 viewBox="0 0 26 26" enable-background="new 0 0 26 26" xml:space="preserve">
<path fill-rule="evenodd" clip-rule="evenodd" fill="#696D72" d="M17.1,20.1H8.9c-0.2,0-0.4-0.2-0.4-0.4L5.6,6.6
	c0-0.3,0.2-0.5,0.4-0.5h14c0.3,0,0.5,0.2,0.4,0.5l-2.9,13.1C17.5,19.9,17.3,20.1,17.1,20.1z M7.6,8l1.8,10.1c0,0.2,0.2,0.4,0.4,0.4
	h6.2c0.2,0,0.4-0.2,0.4-0.4L18.4,8c0.1-0.3-0.2-0.5-0.4-0.5H8C7.8,7.5,7.5,7.8,7.6,8z"/>
</svg>
