<?xml version="1.0" encoding="utf-8"?>
<!-- Generator: Adobe Illustrator 25.0.1, SVG Export Plug-In . SVG Version: 6.00 Build 0)  -->
<svg version="1.1" id="Layer_1" xmlns="http://www.w3.org/2000/svg" xmlns:xlink="http://www.w3.org/1999/xlink" x="0px" y="0px"
	 viewBox="0 0 24 24" enable-background="new 0 0 24 24" xml:space="preserve">
<path fill-rule="evenodd" clip-rule="evenodd" fill="#696D72" d="M22,22.4H11.3c-0.8,0-1.3-0.5-1.3-1.3V10.7c0-0.8,0.5-1.3,1.3-1.3
	H22c0.8,0,1.3,0.5,1.3,1.3v10.4C23.4,21.9,22.8,22.4,22,22.4z M21.7,10.9H11.6v9.9h10.1V10.9z M18.3,12.8l1.1,0.8l-0.3,0.5h1.6v1.3
	H18l-0.9,1.3h3.6v1.3h-4.5l-0.9,1.3l-1.1-0.8l0.4-0.5h-1.7v-1.3h2.7l0.9-1.3h-3.6v-1.3h4.5L18.3,12.8z M20.5,4.2h-7.1v3h-2.8v-3H3.5
	V11h4.7v2.8H3.5v5.7h4.7v2.8H3.5c-1.6,0-2.8-1.3-2.8-2.8V4.2c0-1.6,1.3-2.8,2.8-2.8h17c1.6,0,2.8,1.3,2.8,2.8v3h-2.8V4.2z"/>
<path fill-rule="evenodd" clip-rule="evenodd" fill="#FF8E8E" d="M4.9,7h2.7l0,0v2.7l0,0H4.9l0,0V7L4.9,7z"/>
<path fill-rule="evenodd" clip-rule="evenodd" fill="#4D82B8" d="M4.9,15.8h2.7l0,0v2.7l0,0H4.9l0,0V15.8L4.9,15.8z"/>
</svg>
