<?xml version="1.0" encoding="utf-8"?>
<!-- Generator: Adobe Illustrator 25.0.0, SVG Export Plug-In . SVG Version: 6.00 Build 0)  -->
<svg version="1.1" id="Layer_1" xmlns="http://www.w3.org/2000/svg" xmlns:xlink="http://www.w3.org/1999/xlink" x="0px" y="0px"
	 viewBox="0 0 24 24" enable-background="new 0 0 24 24" xml:space="preserve">
<path fill-rule="evenodd" clip-rule="evenodd" fill="#696D72" d="M19.5,19h-8c-0.6,0-1-0.4-1-1v-7c0-0.6,0.4-1,1-1h8
	c0.6,0,1,0.4,1,1v7C20.5,18.6,20.1,19,19.5,19z M19.5,11h-8v7h8V11z M16.7,12l0.8,0.6L17.3,13h1.2v1h-2l-0.7,1h2.7v1h-3.4l-0.7,1
	l-0.8-0.6l0.3-0.4h-1.3v-1h2l0.7-1h-2.7v-1H16L16.7,12z M17.5,7h-5v2h-2V7h-5v4h4v2h-4v4h4v2h-4c-1.1,0-2-0.9-2-2V7c0-1.1,0.9-2,2-2
	h12c1.1,0,2,0.9,2,2v2h-2V7z"/>
<path fill-rule="evenodd" clip-rule="evenodd" fill="#FF8E8E" d="M6.3,7.9h2l0,0v2l0,0h-2l0,0V7.9L6.3,7.9z"/>
<path fill-rule="evenodd" clip-rule="evenodd" fill="#4D82B8" d="M6.3,14h2l0,0v2l0,0h-2l0,0V14L6.3,14z"/>
</svg>
