<?xml version="1.0" encoding="utf-8"?>
<!-- Generator: Adobe Illustrator 25.0.1, SVG Export Plug-In . SVG Version: 6.00 Build 0)  -->
<svg version="1.1" id="Layer_1" xmlns="http://www.w3.org/2000/svg" xmlns:xlink="http://www.w3.org/1999/xlink" x="0px" y="0px"
	 viewBox="0 0 24 24" enable-background="new 0 0 24 24" xml:space="preserve">
<g>
	<g>
		<path fill-rule="evenodd" clip-rule="evenodd" fill="#CB8E19" d="M18.9,18.4c-2,0-3.6-0.8-3.6-1.7V21c0,1,1.6,1.7,3.6,1.7
			s3.6-0.8,3.6-1.7v-4.3C22.5,17.6,20.9,18.4,18.9,18.4z"/>
	</g>
	<ellipse fill-rule="evenodd" clip-rule="evenodd" fill="#F8A233" cx="18.9" cy="15.7" rx="3.6" ry="1.7"/>
</g>
<g>
	<path fill="#696D72" d="M14,19H5.4c0.1-0.2,0.1-0.3,0.1-0.5C5.5,17.7,4.8,17,4,17c-0.2,0-0.3,0-0.5,0.1V6.9C3.7,7,3.8,7,4,7
		c0.8,0,1.5-0.7,1.5-1.5c0-0.2,0-0.3-0.1-0.5h13.2c-0.1,0.2-0.1,0.3-0.1,0.5C18.5,6.3,19.2,7,20,7c0.2,0,0.3,0,0.5-0.1v6.2h2V5
		c0-1.1-1-2-2.3-2H3.5c-1.1,0-2,0.9-2,2v14c0,1.1,0.9,2,2,2H14V19z"/>
	<circle fill="#696D72" cx="12" cy="12" r="2.2"/>
</g>
</svg>
