<?xml version="1.0" encoding="utf-8"?>
<!-- Generator: Adobe Illustrator 25.0.0, SVG Export Plug-In . SVG Version: 6.00 Build 0)  -->
<svg version="1.1" id="Layer_1" xmlns="http://www.w3.org/2000/svg" xmlns:xlink="http://www.w3.org/1999/xlink" x="0px" y="0px"
	 viewBox="0 0 24 24" enable-background="new 0 0 24 24" xml:space="preserve">
<g>
	<g>
		<path fill-rule="evenodd" clip-rule="evenodd" fill="#CB8E19" d="M17.9,16.4c-2,0-3.6-0.8-3.6-1.7v4.3c0,1,1.6,1.7,3.6,1.7
			c2,0,3.6-0.8,3.6-1.7v-4.3C21.5,15.6,19.9,16.4,17.9,16.4z"/>
	</g>
	<ellipse fill-rule="evenodd" clip-rule="evenodd" fill="#F8A233" cx="17.9" cy="13.7" rx="3.6" ry="1.7"/>
</g>
<g>
	<path fill="#696D72" d="M14.2,11.1h0.4c-0.4-0.7-1.2-1.1-2.1-1.1c-1.4,0-2.5,1.1-2.5,2.5s1.1,2.5,2.5,2.5c0,0,0,0,0,0v-2.2
		C12.5,11.9,13.3,11.1,14.2,11.1z"/>
	<path fill="#696D72" d="M12.5,17H6.9C7,16.8,7,16.7,7,16.5C7,15.7,6.3,15,5.5,15c-0.2,0-0.3,0-0.5,0.1V8.9C5.2,9,5.3,9,5.5,9
		C6.3,9,7,8.3,7,7.5C7,7.3,7,7.2,6.9,7h10.2C17,7.2,17,7.3,17,7.5C17,8.3,17.7,9,18.5,9c0.2,0,0.3,0,0.5-0.1v2.2h2V7
		c0-1.1-1-2-2.3-2H5C3.9,5,3,5.9,3,7v10c0,1.1,0.9,2,2,2h7.5V17z"/>
</g>
</svg>
