<svg xmlns="http://www.w3.org/2000/svg" viewBox="0 0 20 20"><path d="M3.54,2A1.54,1.54,0,0,0,2,3.54V20.46A1.54,1.54,0,0,0,3.54,22H20.46A1.54,1.54,0,0,0,22,20.46V3.54A1.54,1.54,0,0,0,20.46,2Zm0,4H20.46a.54.54,0,0,1,.54.54V20.46a.54.54,0,0,1-.54.54H3.54A.54.54,0,0,1,3,20.46V6.54A.54.54,0,0,1,3.54,6Z" transform="translate(-2 -2)" fill="#696d72"/><line x1="3.99" y1="9" x2="16.01" y2="9" fill="none" stroke="#696d72" stroke-linecap="round" stroke-miterlimit="10" stroke-width="2"/><circle cx="7.64" cy="9" r="2" fill="#fff" stroke="#696d72" stroke-miterlimit="10"/><line x1="16.01" y1="14.5" x2="3.99" y2="14.5" fill="none" stroke="#696d72" stroke-linecap="round" stroke-miterlimit="10" stroke-width="2"/><circle cx="12.36" cy="14.5" r="2" fill="#fff" stroke="#696d72" stroke-miterlimit="10"/></svg>