<?xml version="1.0" encoding="utf-8"?>
<!-- Generator: Adobe Illustrator 25.0.0, SVG Export Plug-In . SVG Version: 6.00 Build 0)  -->
<svg version="1.1" id="Layer_1" xmlns="http://www.w3.org/2000/svg" xmlns:xlink="http://www.w3.org/1999/xlink" x="0px" y="0px"
	 viewBox="0 0 26 26" enable-background="new 0 0 26 26" xml:space="preserve">
<path fill-rule="evenodd" clip-rule="evenodd" fill="#696D72" d="M18.2,21.5H3.1c-0.3,0-0.5-0.3-0.4-0.5L7.4,4.8
	c0.1-0.2,0.2-0.3,0.4-0.3h15.1c0.3,0,0.5,0.3,0.4,0.5l-4.8,16.2C18.5,21.4,18.4,21.5,18.2,21.5z M5.5,20h11c0.2,0,0.3-0.1,0.4-0.3
	l4.1-13.2C21,6.3,20.8,6,20.5,6h-11C9.3,6,9.2,6.1,9.1,6.3L5.1,19.5C5,19.7,5.2,20,5.5,20z"/>
</svg>
