<svg xmlns="http://www.w3.org/2000/svg" viewBox="0 0 21 19"><path d="M3,5V19h9a2,2,0,0,1,0-4h3V12a2,2,0,0,1,4,0v3h2V5Z" transform="translate(-2 -4)" fill="#fff"/><path d="M21,14v1h1V5.12A1.12,1.12,0,0,0,20.88,4H3A1,1,0,0,0,2,5V18.88A1.12,1.12,0,0,0,3.12,20H15V19H12a1.74,1.74,0,0,1-.39-.05,1.33,1.33,0,0,1-.37-.12,2.68,2.68,0,0,1-.33-.18h0a2.17,2.17,0,0,1-.29-.24,2.11,2.11,0,0,1-.19-.23l-.06-.07,0-.06A2.18,2.18,0,0,1,10,17.4h0a2,2,0,0,1,.12-1.18,2.14,2.14,0,0,1,2-1.22h2.72a.12.12,0,0,0,.12-.12V12a1.82,1.82,0,0,1,.08-.52l0-.11a2.53,2.53,0,0,1,.21-.44l0,0a1.65,1.65,0,0,1,.33-.37.39.39,0,0,1,.1-.08,2,2,0,0,1,.39-.26h0L16,10l-4.92,4.52a.12.12,0,0,1-.16,0L9.09,13.07a.11.11,0,0,0-.16,0C8.27,13.8,3.47,19,3,19H3V5.12A.12.12,0,0,1,3.12,5H20.88a.12.12,0,0,1,.12.12V13.5M21,15m-2,4v1h2.5a.45.45,0,0,0,.2,0,.5.5,0,0,0,.3-.46V19Z" transform="translate(-2 -4)" fill="#696d72"/><circle cx="5.5" cy="4.5" r="2.5" fill="#eac282"/><path d="M17,11a1,1,0,0,0-1,1v4H12a1,1,0,0,0,0,2h4v4a1,1,0,0,0,2,0V18h4a1,1,0,0,0,0-2H18V12A1,1,0,0,0,17,11Z" transform="translate(-2 -4)" fill="#4d82b8"/></svg>