<?xml version="1.0" encoding="utf-8"?>
<!-- Generator: Adobe Illustrator 25.0.1, SVG Export Plug-In . SVG Version: 6.00 Build 0)  -->
<svg version="1.1" id="Layer_1" xmlns="http://www.w3.org/2000/svg" xmlns:xlink="http://www.w3.org/1999/xlink" x="0px" y="0px"
	 viewBox="0 0 24 24" enable-background="new 0 0 24 24" xml:space="preserve">
<g>
	<path fill="#696D72" d="M6.6,2.5c-2.7,0-5,4.1-5,9.2s2.3,9.2,5,9.2c2.8,0,5-4.1,5-9.2S9.3,2.5,6.6,2.5z M6.6,18.2
		c-1.1,0-2.1-2.8-2.1-6.4s1-6.4,2.1-6.4c1.3,0,2.1,2.8,2.1,6.4S7.7,18.2,6.6,18.2z"/>
</g>
<path fill-rule="evenodd" clip-rule="evenodd" fill="#696D72" d="M0.5,18.6h2.2l0,0v2.2l0,0H0.5l0,0V18.6L0.5,18.6z"/>
<path fill-rule="evenodd" clip-rule="evenodd" fill="#DE5858" d="M21.2,17.1l2.1,2.1c0.3,0.3,0.3,0.9,0,1.2l-0.1,0.1
	c-0.3,0.3-0.9,0.3-1.2,0l-2.1-2.1l-2.1,2.1c-0.3,0.3-0.9,0.3-1.2,0l-0.1-0.1c-0.3-0.3-0.3-0.9,0-1.2l2.1-2.1L16.4,15
	c-0.3-0.3-0.3-0.9,0-1.2l0.1-0.1c0.3-0.3,0.9-0.3,1.2,0l2.1,2.1l2.1-2.1c0.3-0.3,0.9-0.3,1.2,0l0.1,0.1c0.3,0.3,0.3,0.9,0,1.2
	L21.2,17.1z"/>
<path fill="#696D72" d="M16.6,17.5c-0.7-1-1.2-3.2-1.2-5.7c0-3.6,1-6.4,2.1-6.4c1.3,0,2.1,2.8,2.1,6.4c0,1-0.1,2-0.2,2.8l0.1,0.1
	l3-2.9c0,0,0,0,0,0c0-5.1-2.3-9.2-5-9.2s-5,4.1-5,9.2c0,3.1,0.8,5.9,2.1,7.5L16.6,17.5z"/>
</svg>
