<?xml version="1.0" encoding="utf-8"?>
<!-- Generator: Adobe Illustrator 25.0.0, SVG Export Plug-In . SVG Version: 6.00 Build 0)  -->
<svg version="1.1" id="Layer_1" xmlns="http://www.w3.org/2000/svg" xmlns:xlink="http://www.w3.org/1999/xlink" x="0px" y="0px"
	 viewBox="0 0 24 24" enable-background="new 0 0 24 24" xml:space="preserve">
<path fill-rule="evenodd" clip-rule="evenodd" fill="#696D72" d="M16.5,10.5c-0.2-1.7-0.8-3-1.4-3c-0.8,0-1.5,2-1.5,4.5
	c0,2,0.4,3.6,1,4.2v2.2c-1.7-0.5-3-3.2-3-6.4c0-3.6,1.6-6.5,3.5-6.5c1.7,0,3,2.1,3.4,5C18.5,10.5,16.5,10.5,16.5,10.5z M7,18.5
	c-1.9,0-3.5-2.9-3.5-6.5S5.1,5.5,7,5.5s3.5,2.9,3.5,6.5S9,18.5,7,18.5z M7,7.5c-0.8,0-1.5,2-1.5,4.5s0.7,4.5,1.5,4.5s1.5-2,1.5-4.5
	S7.9,7.5,7,7.5z"/>
<path fill-rule="evenodd" clip-rule="evenodd" fill="#696D72" d="M1,16.5h2l0,0v2l0,0H1l0,0V16.5L1,16.5z"/>
<g>
	
		<line fill="none" stroke="#4D82B8" stroke-width="2" stroke-linecap="round" stroke-miterlimit="10" x1="18.9" y1="12.4" x2="18.9" y2="17.5"/>
	
		<line fill="none" stroke="#4D82B8" stroke-width="2" stroke-linecap="round" stroke-miterlimit="10" x1="21.4" y1="15" x2="16.4" y2="15"/>
</g>
</svg>
