<?xml version="1.0" encoding="utf-8"?>
<!-- Generator: Adobe Illustrator 25.0.1, SVG Export Plug-In . SVG Version: 6.00 Build 0)  -->
<svg version="1.1" id="Layer_1" xmlns="http://www.w3.org/2000/svg" xmlns:xlink="http://www.w3.org/1999/xlink" x="0px" y="0px"
	 viewBox="0 0 24 24" enable-background="new 0 0 24 24" xml:space="preserve">
<g>
	<path fill="#696D72" d="M6.6,2.5c-2.7,0-5,4.1-5,9.2s2.3,9.2,5,9.2c2.8,0,5-4.1,5-9.2S9.3,2.5,6.6,2.5z M6.6,18.2
		c-1.1,0-2.1-2.8-2.1-6.4s1-6.4,2.1-6.4c1.3,0,2.1,2.8,2.1,6.4S7.7,18.2,6.6,18.2z"/>
</g>
<path fill-rule="evenodd" clip-rule="evenodd" fill="#696D72" d="M0.5,18.6h2.2l0,0v2.2l0,0H0.5l0,0V18.6L0.5,18.6z"/>
<g>
	
		<line fill="none" stroke="#4D82B8" stroke-width="2.5" stroke-linecap="round" stroke-miterlimit="10" x1="19" y1="13.7" x2="19" y2="19.8"/>
	
		<line fill="none" stroke="#4D82B8" stroke-width="2.5" stroke-linecap="round" stroke-miterlimit="10" x1="22" y1="16.8" x2="16" y2="16.8"/>
</g>
<g>
	<path fill="#696D72" d="M15.7,14.6c-0.1-0.7-0.2-1.9-0.2-2.8c0-3.6,1-6.4,2.1-6.4c1.2,0,2,2.6,2.1,5.9c0.5,0.1,1.4,0.5,1.4,1.7
		c0,1.7,0,1.7,0,1.7l1.5,0c0-1,0-1.8,0-2.8c0-5.1-2.3-9.2-5-9.2s-5,4.1-5,9.2c0,1.7,0.3,3.3,0.7,4.7C13.7,15.7,14.1,14.7,15.7,14.6z
		"/>
</g>
</svg>
