<?xml version="1.0" encoding="utf-8"?>
<!-- Generator: Adobe Illustrator 25.0.0, SVG Export Plug-In . SVG Version: 6.00 Build 0)  -->
<svg version="1.1" id="Layer_1" xmlns="http://www.w3.org/2000/svg" xmlns:xlink="http://www.w3.org/1999/xlink" x="0px" y="0px"
	 viewBox="0 0 26 26" enable-background="new 0 0 26 26" xml:space="preserve">
<path fill-rule="evenodd" clip-rule="evenodd" fill="#696D72" d="M20.9,14.6C20,18,16.7,21,13,21c-4.4,0-8-3.6-8-8
	c0-4.1,3.1-7.4,7-7.9V5l0.1,0.1C12.4,5,12.7,5,13,5c0.6,0,1,0.4,1,1v4c0,0,0,0,0,0v3h6c0.6,0,1.1,0.5,1,1L20.9,14.6z M12,15v-2V7.1
	C9.2,7.6,7,10,7,13c0,3.3,2.7,6,6,6c2.6,0,4.8-1.7,5.6-4H17l0,0h-3H12z"/>
</svg>
