<?xml version="1.0" encoding="utf-8"?>
<!-- Generator: Adobe Illustrator 25.0.0, SVG Export Plug-In . SVG Version: 6.00 Build 0)  -->
<svg version="1.1" id="Layer_1" xmlns="http://www.w3.org/2000/svg" xmlns:xlink="http://www.w3.org/1999/xlink" x="0px" y="0px"
	 viewBox="0 0 26 26" enable-background="new 0 0 26 26" xml:space="preserve">
<path fill-rule="evenodd" clip-rule="evenodd" fill="#696D72" d="M20,21H6c-1.1,0-2-0.9-2-2V7c0-1.1,0.9-2,2-2h14c1.1,0,2,0.9,2,2
	v12C22,20.1,21.1,21,20,21z M20,8c0-0.6-0.4-1-1-1H7C6.4,7,6,7.4,6,8v10c0,0.6,0.4,1,1,1h12c0.6,0,1-0.4,1-1V8z M7.4,16.2l10-8
	l1.3,1.6l-10,8L7.4,16.2z"/>
</svg>
