<?xml version="1.0" encoding="utf-8"?>
<!-- Generator: Adobe Illustrator 25.0.0, SVG Export Plug-In . SVG Version: 6.00 Build 0)  -->
<svg version="1.1" id="Layer_1" xmlns="http://www.w3.org/2000/svg" xmlns:xlink="http://www.w3.org/1999/xlink" x="0px" y="0px"
	 viewBox="0 0 24 24" enable-background="new 0 0 24 24" xml:space="preserve">
<path fill-rule="evenodd" clip-rule="evenodd" fill="#696D72" d="M20.1,14.9l-3.5,3.5c-0.1,0.1-0.3,0.1-0.3,0l-3.5-3.5
	c-0.1-0.1,0-0.4,0.1-0.4h2.3c0.1,0,0.2-0.1,0.2-0.2V5.7c0-0.1,0.1-0.2,0.2-0.2h1.5c0.1,0,0.2,0.1,0.2,0.2v8.5c0,0.1,0.1,0.2,0.2,0.2
	H20C20.2,14.5,20.3,14.7,20.1,14.9z"/>
<g enable-background="new    ">
	<path fill="#5F6368" d="M7.1,17.3H10v1.3H5.2v-0.9L7.9,14H5.2v-1.3h4.7v0.9L7.1,17.3z"/>
</g>
<path fill="#4D82B8" d="M5.1,9.6c0,0.5,0.2,1,0.5,1.4c0.4,0.3,0.8,0.5,1.4,0.5c0.6,0,1.1-0.2,1.5-0.6c0,0.2,0.1,0.5,0.2,0.5h1.6
	v-0.1c-0.2-0.3-0.2-0.7-0.2-1.3V7.5c0-0.7-0.2-1.2-0.6-1.5C9,5.6,8.3,5.4,7.6,5.4c-0.9,0-2.1,0.4-2.4,1.9h1.5c0,0,0-0.1,0-0.2
	c0-0.3,0.4-0.6,0.9-0.6c0.5,0,0.9,0.2,0.9,0.5h0l0,0.3l0,0.3H7.8C5,7.6,5.1,9.6,5.1,9.6z M7.3,10.5c-0.5,0-0.9-0.4-0.9-0.9
	c0-0.5,0.4-0.9,0.9-0.9c0.5,0,0.9,0.4,0.9,0.9C8.2,10.1,7.8,10.5,7.3,10.5z"/>
<rect x="7.4" y="8.7" fill="#FFFFFF" width="0.8" height="0.8"/>
</svg>
