<?xml version="1.0" encoding="utf-8"?>
<!-- Generator: Adobe Illustrator 25.0.0, SVG Export Plug-In . SVG Version: 6.00 Build 0)  -->
<svg version="1.1" id="Layer_1" xmlns="http://www.w3.org/2000/svg" xmlns:xlink="http://www.w3.org/1999/xlink" x="0px" y="0px"
	 viewBox="0 0 26 26" enable-background="new 0 0 26 26" xml:space="preserve">
<path fill-rule="evenodd" clip-rule="evenodd" fill="#696D72" d="M20.5,15.5v-5l3,2.5L20.5,15.5z M20.1,16.5l0.1,3.6l-3.6-0.1
	L20.1,16.5z M16.5,5.9l3.6-0.1l-0.1,3.6L16.5,5.9z M13,2.5l2.5,3h-5L13,2.5z M5.9,5.9l3.6,0.1L5.9,9.5L5.9,5.9z M5.5,10.5v5l-3-2.5
	L5.5,10.5z M9.5,20.1l-3.6,0.1l0.1-3.6L9.5,20.1z M6.5,13c0-3.6,2.9-6.5,6.5-6.5s6.5,2.9,6.5,6.5s-2.9,6.5-6.5,6.5S6.5,16.6,6.5,13z
	 M13,17.5c2.5,0,4.5-2,4.5-4.5s-2-4.5-4.5-4.5s-4.5,2-4.5,4.5S10.5,17.5,13,17.5z M13,23.5l-2.5-3h5L13,23.5z"/>
</svg>
