<svg xmlns="http://www.w3.org/2000/svg" viewBox="0 0 19.18 19"><path d="M21.2,12.6a4.05,4.05,0,0,1,1.2,4,4,4,0,0,1-2.8,2.8,4.57,4.57,0,0,1-2.6-.2v.4a2.9,2.9,0,1,1-5.8,0h0a4,4,0,0,1-2.7.9,3.8,3.8,0,0,1-4-3.5A3.28,3.28,0,0,1,6,14.3a4.63,4.63,0,0,1-2.5-5A4.79,4.79,0,0,1,6.4,5.9a4.63,4.63,0,0,1,4,.2A3.79,3.79,0,0,1,14,3.5a3.68,3.68,0,0,1,3.7,3.1,2.77,2.77,0,0,1,.9-.1,3.8,3.8,0,0,1,4,3.5A4,4,0,0,1,21.2,12.6Zm-2.7-.1a3.08,3.08,0,0,0-.1-1c1.2-.1,2.1-.7,2.1-1.5S19.4,8.5,18,8.5a5.07,5.07,0,0,0-1.3.2,4.62,4.62,0,0,0-1.5-.9,1.14,1.14,0,0,0,.3-.8,1.5,1.5,0,0,0-3,0,1.27,1.27,0,0,0,.1.6,5,5,0,0,0-2,.8,2.81,2.81,0,0,0-2.7-.8A3.11,3.11,0,0,0,5.5,10a3,3,0,0,0,3,3.5h.1c.1.4.2.7.3,1-1.4.2-2.4,1-2.4,2s1.3,2,3,2a3.16,3.16,0,0,0,2.7-1.2.37.37,0,0,1,.3.1c0,.2-.1.4-.1.6,0,1.4.7,2.5,1.5,2.5s1.5-1.1,1.5-2.5a2.77,2.77,0,0,0-.1-.9,3,3,0,0,0,.8-.4,2.64,2.64,0,0,0,2.3.8,2.57,2.57,0,0,0,2-2,2.48,2.48,0,0,0-1.9-3Z" transform="translate(-3.42 -3.5)" fill="#6d7075" fill-rule="evenodd"/></svg>