<svg xmlns="http://www.w3.org/2000/svg" viewBox="0 0 21 21"><path d="M13,3.5c-1.31,0-2.78,2.78-2.78,2.78s-3-.92-3.94,0,0,3.94,0,3.94S3.5,11.69,3.5,13s2.78,2.78,2.78,2.78-.92,3,0,3.94,3.94,0,3.94,0S11.69,22.5,13,22.5s2.78-2.78,2.78-2.78,3,.92,3.94,0,0-3.94,0-3.94S22.5,14.31,22.5,13s-2.78-2.78-2.78-2.78.92-3,0-3.94-3.94,0-3.94,0S14.31,3.5,13,3.5Zm0,5A4.34,4.34,0,0,1,17.5,13,4.34,4.34,0,0,1,13,17.5,4.34,4.34,0,0,1,8.5,13,4.34,4.34,0,0,1,13,8.5Z" transform="translate(-2.5 -2.5)" fill="none" stroke="#6d7075" stroke-miterlimit="10" stroke-width="2"/></svg>