<?xml version="1.0" encoding="utf-8"?>
<!-- Generator: Adobe Illustrator 25.0.0, SVG Export Plug-In . SVG Version: 6.00 Build 0)  -->
<svg version="1.1" id="Layer_1" xmlns="http://www.w3.org/2000/svg" xmlns:xlink="http://www.w3.org/1999/xlink" x="0px" y="0px"
	 viewBox="0 0 26 26" enable-background="new 0 0 26 26" xml:space="preserve">
<path fill-rule="evenodd" clip-rule="evenodd" fill="#6D7075" d="M19.5,16.5v4c0,0.6-0.4,1-1,1h-3c0-0.6-0.4-1-1-1V19
	c0-1.4-0.1-2.5-1.5-2.5s-1.5,1.1-1.5,2.5v1.5c-0.6,0-1,0.4-1,1h-3c-0.6,0-1-0.4-1-1v-4c-1.7-0.2-3-1.7-3-3.5s1.3-3.2,3-3.4V5.5
	c0-0.6,0.4-1,1-1h3c0,0.6,0.4,1,1,1V7c0,1.4,0.1,2.5,1.5,2.5s1.5-1.1,1.5-2.5V5.5c0.6,0,1-0.4,1-1h3c0.6,0,1,0.4,1,1v4.1
	c1.7,0.2,3,1.7,3,3.4S21.2,16.2,19.5,16.5z M9.5,6c0-0.3-0.2-0.5-0.5-0.5S8.5,5.7,8.5,6v5.5H7c-0.8,0-1.5,0.7-1.5,1.5
	c0,0.8,0.7,1.5,1.5,1.5h1.5V19c0,0.3,0.2,0.5,0.5,0.5s0.5-0.2,0.5-0.5v-2.5c0,0,0.2-2,3-2l0,0h1.1l0,0c2.5,0,2.7,2,2.7,2
	s0,0.1,0.1,0.3l0.1,0.5l0,0.1l0,0.2v1V19c0,0.3,0.2,0.5,0.5,0.5s0.5-0.2,0.5-0.5v-0.5v-1v-1v-2H19c0.8,0,1.5-0.7,1.5-1.5
	c0-0.8-0.7-1.5-1.5-1.5h-1.5v-1V6c0-0.3-0.2-0.5-0.5-0.5S16.5,5.7,16.5,6l0,2l-0.1,1.1l-0.1,0.2c0-0.9,0,0.2,0,0.2s-0.2,2-2.6,2l0,0
	h-1l0,0c-2.7,0-2.9-2-2.9-2"/>
</svg>
