<svg xmlns="http://www.w3.org/2000/svg" viewBox="0 0 19 17"><path d="M19.5,16.5v4a.94.94,0,0,1-1,1h-3a.94.94,0,0,0-1-1V19c0-1.4-.1-2.5-1.5-2.5s-1.5,1.1-1.5,2.5v1.5a.94.94,0,0,0-1,1h-3a.94.94,0,0,1-1-1v-4a3.47,3.47,0,0,1-3-3.5,3.37,3.37,0,0,1,3-3.4V5.5a.94.94,0,0,1,1-1h3a.94.94,0,0,0,1,1V7c0,1.4.1,2.5,1.5,2.5S14.5,8.4,14.5,7V5.5a.94.94,0,0,0,1-1h3a.94.94,0,0,1,1,1V9.6a3.45,3.45,0,0,1,3,3.4A3.63,3.63,0,0,1,19.5,16.5ZM9.5,6a.5.5,0,0,0-1,0v5.5H7a1.5,1.5,0,0,0,0,3H8.5V19a.5.5,0,0,0,1,0V16.5s.2-2,3-2h1.1a2.42,2.42,0,0,1,2.7,2,.77.77,0,0,0,.1.3l.1.5V19a.5.5,0,0,0,1,0V14.5H19a1.5,1.5,0,0,0,0-3H17.5V6a.5.5,0,0,0-1,0V8l-.1,1.1-.1.2v.2a2.37,2.37,0,0,1-2.6,2h-1c-2.7,0-2.9-2-2.9-2" transform="translate(-3.5 -4.5)" fill="#6d7075" fill-rule="evenodd"/></svg>