<?xml version="1.0" encoding="utf-8"?>
<!-- Generator: Adobe Illustrator 25.0.0, SVG Export Plug-In . SVG Version: 6.00 Build 0)  -->
<svg version="1.1" id="Layer_1" xmlns="http://www.w3.org/2000/svg" xmlns:xlink="http://www.w3.org/1999/xlink" x="0px" y="0px"
	 viewBox="0 0 26 26" enable-background="new 0 0 26 26" xml:space="preserve">
<path fill-rule="evenodd" clip-rule="evenodd" fill="#6D7075" d="M23.6,13.7L21,16.3V20c0,0.6-0.4,1-1,1h-3.7l-2.6,2.6
	c-0.4,0.4-1,0.4-1.4,0L9.7,21H6c-0.6,0-1-0.4-1-1v-3.7l-2.6-2.6c-0.4-0.4-0.4-1,0-1.4L5,9.7V6c0-0.6,0.4-1,1-1h3.7l2.6-2.6
	c0.4-0.4,1-0.4,1.4,0L16.3,5H20c0.6,0,1,0.4,1,1v3.7l2.6,2.6C24,12.7,24,13.3,23.6,13.7z M19,10.5V7.7V7h-0.7h-2.8L13,4.5L10.5,7
	H7.7H7v0.7v2.8L4.5,13L7,15.5v2.8V19h0.7h2.8l2.5,2.5l2.5-2.5h2.8H19v-0.7v-2.8l2.5-2.5L19,10.5z M13,18c-2.8,0-5-2.2-5-5s2.2-5,5-5
	s5,2.2,5,5S15.8,18,13,18z M13,10c-1.7,0-3,1.3-3,3s1.3,3,3,3s3-1.3,3-3S14.7,10,13,10z"/>
</svg>
