<?xml version="1.0" encoding="utf-8"?>
<!-- Generator: Adobe Illustrator 25.0.0, SVG Export Plug-In . SVG Version: 6.00 Build 0)  -->
<svg version="1.1" id="Layer_1" xmlns="http://www.w3.org/2000/svg" xmlns:xlink="http://www.w3.org/1999/xlink" x="0px" y="0px"
	 viewBox="0 0 26 26" enable-background="new 0 0 26 26" xml:space="preserve">
<path fill-rule="evenodd" clip-rule="evenodd" fill="#6D7075" d="M21.2,12.6c1,0.9,1.6,2.4,1.2,4c-0.4,1.4-1.5,2.5-2.8,2.8
	c-0.9,0.2-1.8,0.1-2.6-0.2c0,0.1,0,0.3,0,0.4c0,1.6-1.3,2.9-2.9,2.9s-2.9-1.3-2.9-2.9c0,0,0,0,0,0c-0.7,0.6-1.6,0.9-2.7,0.9
	c-2.2,0-4-1.6-4-3.5c0-1.1,0.6-2.1,1.5-2.7c-1.8-0.9-2.9-2.9-2.5-5C3.9,7.7,5,6.4,6.4,5.9c1.5-0.6,2.8-0.4,4,0.2
	c0.5-1.5,1.9-2.6,3.6-2.6c1.9,0,3.4,1.3,3.7,3.1c0.3-0.1,0.6-0.1,0.9-0.1c2.2,0,4,1.6,4,3.5C22.5,11,22,11.9,21.2,12.6z M18.5,12.5
	c0-0.4,0-0.7-0.1-1c1.2-0.1,2.1-0.7,2.1-1.5c0-0.8-1.1-1.5-2.5-1.5c-0.5,0-0.9,0.1-1.3,0.2c-0.4-0.4-1-0.7-1.5-0.9
	c0.2-0.2,0.3-0.5,0.3-0.8c0-0.8-0.7-1.5-1.5-1.5S12.5,6.2,12.5,7c0,0.2,0,0.4,0.1,0.6c-0.7,0.1-1.4,0.4-2,0.8C10,7.7,9,7.4,7.9,7.6
	C6.7,7.8,5.8,8.8,5.5,10c-0.3,1.9,1.1,3.5,3,3.5c0,0,0.1,0,0.1,0c0.1,0.4,0.2,0.7,0.3,1c-1.4,0.2-2.4,1-2.4,2c0,1.1,1.3,2,3,2
	c1.2,0,2.3-0.5,2.7-1.2c0.1,0,0.2,0,0.3,0.1c0,0.2-0.1,0.4-0.1,0.6c0,1.4,0.7,2.5,1.5,2.5s1.5-1.1,1.5-2.5c0-0.3,0-0.6-0.1-0.9
	c0.3-0.1,0.5-0.2,0.8-0.4c0.5,0.6,1.4,0.9,2.3,0.8c1-0.2,1.8-1,2-2C20.7,14,19.8,12.8,18.5,12.5C18.5,12.5,18.5,12.5,18.5,12.5z"/>
</svg>
