<?xml version="1.0" encoding="utf-8"?>
<!-- Generator: Adobe Illustrator 25.0.0, SVG Export Plug-In . SVG Version: 6.00 Build 0)  -->
<svg version="1.1" id="Layer_1" xmlns="http://www.w3.org/2000/svg" xmlns:xlink="http://www.w3.org/1999/xlink" x="0px" y="0px"
	 viewBox="0 0 24 24" enable-background="new 0 0 24 24" xml:space="preserve">
<path fill="#696D72" d="M9.8,17.6V15c0-0.7-0.3-1.1-0.7-1.5C8.6,13.2,8,13,7.3,13c-0.9,0-2.1,0.4-2.4,1.9h1.5c0,0,0-0.1,0-0.2
	c0-0.3,0.4-0.6,0.9-0.6c0.5,0,0.9,0.2,0.9,0.5h0l0,0.3l0,0.3H7.5c-2.8-0.1-2.6,1.9-2.6,1.9c0,0.5,0.2,1,0.5,1.4
	C5.8,18.8,6.2,19,6.8,19c0.6,0,1.1-0.2,1.5-0.6c0,0.2,0.1,0.5,0.2,0.5H10v-0.1C9.8,18.5,9.8,18.1,9.8,17.6z M7,18.1
	c-0.5,0-0.9-0.4-0.9-0.9c0-0.5,0.4-0.9,0.9-0.9c0,0,0.1,0,0.1,0v0h0.8v0.8h0c0,0,0,0.1,0,0.1C7.9,17.7,7.5,18.1,7,18.1z"/>
<path fill-rule="evenodd" clip-rule="evenodd" fill="#696D72" d="M20.1,14.9l-3.5,3.5c-0.1,0.1-0.3,0.1-0.3,0l-3.5-3.5
	c-0.1-0.1,0-0.4,0.1-0.4h2.3c0.1,0,0.2-0.1,0.2-0.2V5.7c0-0.1,0.1-0.2,0.2-0.2h1.5c0.1,0,0.2,0.1,0.2,0.2v8.5c0,0.1,0.1,0.2,0.2,0.2
	H20C20.2,14.5,20.3,14.7,20.1,14.9z"/>
<g>
	<path fill="#4D82B8" d="M7.1,10.3H10v1.3H5.2v-0.9L7.9,7H5.2V5.7h4.7v0.9L7.1,10.3z"/>
</g>
</svg>
