<?xml version="1.0" encoding="utf-8"?>
<!-- Generator: Adobe Illustrator 25.0.0, SVG Export Plug-In . SVG Version: 6.00 Build 0)  -->
<svg version="1.1" id="Layer_1" xmlns="http://www.w3.org/2000/svg" xmlns:xlink="http://www.w3.org/1999/xlink" x="0px" y="0px"
	 viewBox="0 0 26 26" enable-background="new 0 0 26 26" xml:space="preserve">
<path fill-rule="evenodd" clip-rule="evenodd" fill="#6D7075" d="M22,13c0,5-4,9-9,9c-5,0-9-4-9-9c0-5,4-9,9-9c1.5,0,3,0.4,4.3,1.1
	l0-0.1L19,6.2l-0.1,0.1C20.8,7.9,22,10.3,22,13z M17.8,18c1.1-1.1,1.8-2.5,2.1-4h-2c-0.2,0.9-0.6,1.7-1.2,2.4L17.8,18z M7.8,17.7
	l1.2-1.6c-0.5-0.6-0.8-1.3-1-2.1h-2C6.3,15.4,6.9,16.7,7.8,17.7z M8.2,8C7.1,9,6.3,10.4,6.1,12h2c0.2-0.9,0.6-1.7,1.2-2.4L8.2,8z
	 M13,6c-1.2,0-2.2,0.3-3.2,0.8L11,8.4C11.6,8.2,12.3,8,13,8c0.6,0,1.3,0.1,1.8,0.4L16,6.7C15.1,6.3,14.1,6,13,6z M10,13
	c0,1.7,1.3,3,3,3s3-1.3,3-3s-1.3-3-3-3S10,11.3,10,13z M15,17.6c-0.6,0.3-1.3,0.4-2,0.4c-0.9,0-1.7-0.2-2.4-0.6L9.4,19
	c1,0.6,2.3,1,3.6,1c1.2,0,2.2-0.3,3.2-0.8L15,17.6z M17.7,7.9l-1.2,1.6c0.7,0.7,1.2,1.6,1.4,2.5h2C19.7,10.4,18.9,8.9,17.7,7.9z"/>
</svg>
