<?xml version="1.0" encoding="utf-8"?>
<!-- Generator: Adobe Illustrator 25.0.0, SVG Export Plug-In . SVG Version: 6.00 Build 0)  -->
<svg version="1.1" id="Layer_1" xmlns="http://www.w3.org/2000/svg" xmlns:xlink="http://www.w3.org/1999/xlink" x="0px" y="0px"
	 viewBox="0 0 24 24" enable-background="new 0 0 24 24" xml:space="preserve">
<path fill-rule="evenodd" clip-rule="evenodd" fill="#696D72" d="M18,19H6c-1.1,0-2-0.9-2-2V7c0-1.1,0.9-2,2-2h7c0.6,0,1,0.4,1,1v0
	c0,0.6-0.4,1-1,1H6v10h12v-7c0-0.6,0.4-1,1-1h0c0.6,0,1,0.4,1,1v7C20,18.1,19.1,19,18,19z M8.9,16c-0.4,0-0.6-0.4-0.4-0.7
	c0.8-1.2,1-2.1,0.6-3.3c-0.1-0.2,0-0.4,0.1-0.5c0.6-0.4,1.5-0.6,2.3-0.4C11.2,11.3,11,11.6,11,12c0,0.6,0.4,1,1,1
	c0.4,0,0.7-0.2,0.9-0.5C12.9,12.5,13.2,15.8,8.9,16z M13.5,11.7c-0.2,0.2-0.4,0.2-0.6,0.2c0-0.5-0.4-0.9-0.9-1
	c0-0.2,0.1-0.4,0.2-0.6l5.2-5.2c0.4-0.4,0.9-0.4,1.3,0c0.4,0.4,0.4,0.9,0,1.3L13.5,11.7z"/>
</svg>
