<?xml version="1.0" encoding="utf-8"?>
<!-- Generator: Adobe Illustrator 25.0.0, SVG Export Plug-In . SVG Version: 6.00 Build 0)  -->
<svg version="1.1" id="Layer_1" xmlns="http://www.w3.org/2000/svg" xmlns:xlink="http://www.w3.org/1999/xlink" x="0px" y="0px"
	 viewBox="0 0 26 26" enable-background="new 0 0 26 26" xml:space="preserve">
<path fill-rule="evenodd" clip-rule="evenodd" fill="#6D7075" d="M13,22.9L3.1,13L13,3.1l9.9,9.9L13,22.9z M14,19.1l5.1-5.1H16v2h-2
	V19.1z M13,20.1L13,20.1L13,20.1L13,20.1z M12,19.1V16h-2v-2H6.9L12,19.1z M6,12.9L6,12.9v0.1V12.9z M12,6.9L6.9,12H10v-2h2V6.9z
	 M12,14h2v-2h-2V14z M13,5.9L13,5.9L13,5.9L13,5.9z M14,6.9V10h2v2h3.1L14,6.9z M20,13.1L20,13.1v-0.1V13.1z"/>
</svg>
