<?xml version="1.0" encoding="utf-8"?>
<!-- Generator: Adobe Illustrator 25.0.0, SVG Export Plug-In . SVG Version: 6.00 Build 0)  -->
<svg version="1.1" id="Layer_1" xmlns="http://www.w3.org/2000/svg" xmlns:xlink="http://www.w3.org/1999/xlink" x="0px" y="0px"
	 viewBox="0 0 26 26" enable-background="new 0 0 26 26" xml:space="preserve">
<path fill-rule="evenodd" clip-rule="evenodd" fill="#6D7075" d="M13.5,10.3c-0.1,0.1,0,0.2,0.1,0.2h5.2h0.7l0,1.7c0,0,0,0.1,0,0.1
	l-9,8c-0.1,0.1,0,0.2,0.1,0.2h3c0.6,0,1,0.4,1,1s-0.4,1-1,1H7.6c-0.6,0-1.1-0.5-1.1-1.1v-5.9c0-0.6,0.4-1,1-1s1,0.4,1,1V19
	c0,0.1,0.1,0.2,0.2,0.1l7.1-6.3c0.1-0.1,0-0.2-0.1-0.2l-5.3,0h-1l0-1.1c0,0,0-0.1,0-0.1l8.2-7.7c0,0,0.1-0.1,0.2,0l1.4,1
	c0.1,0.1,0.1,0.2,0,0.2L13.5,10.3z"/>
</svg>
