<?xml version="1.0" encoding="utf-8"?>
<!-- Generator: Adobe Illustrator 25.0.0, SVG Export Plug-In . SVG Version: 6.00 Build 0)  -->
<svg version="1.1" id="Layer_1" xmlns="http://www.w3.org/2000/svg" xmlns:xlink="http://www.w3.org/1999/xlink" x="0px" y="0px"
	 viewBox="0 0 26 26" enable-background="new 0 0 26 26" xml:space="preserve">
<path fill-rule="evenodd" clip-rule="evenodd" fill="#696D72" d="M13,23C7.5,23,3,18.5,3,13S7.5,3,13,3s10,4.5,10,10S18.5,23,13,23z
	 M13,5c-4.4,0-8,3.6-8,8s3.6,8,8,8s8-3.6,8-8S17.4,5,13,5z M13,18.7c-2.4,0-4.5-1.5-5.3-3.7h1.8c0.7,1.2,2,2.1,3.5,2.1
	s2.8-0.8,3.5-2.1h1.8C17.5,17.1,15.4,18.7,13,18.7z M16.5,12c-0.8,0-1.5-0.7-1.5-1.5C15,9.7,15.7,9,16.5,9c0.8,0,1.5,0.7,1.5,1.5
	C18,11.3,17.3,12,16.5,12z M9.5,12C8.7,12,8,11.3,8,10.5C8,9.7,8.7,9,9.5,9S11,9.7,11,10.5C11,11.3,10.3,12,9.5,12z"/>
</svg>
