<svg xmlns="http://www.w3.org/2000/svg" viewBox="0 0 20 20"><path d="M13,3.5,11.4,6.71A6.16,6.16,0,0,1,13,6.5a6.3,6.3,0,0,1,1.61.21ZM6.28,6.28,7.41,9.7A6.44,6.44,0,0,1,9.7,7.41Zm13.44,0L16.3,7.41A6.44,6.44,0,0,1,18.59,9.7Zm-13,5.11L3.5,13l3.21,1.6A6.16,6.16,0,0,1,6.5,13,6.3,6.3,0,0,1,6.71,11.39Zm12.58,0A6.16,6.16,0,0,1,19.5,13a6.3,6.3,0,0,1-.21,1.61L22.5,13ZM7.41,16.3,6.28,19.72,9.7,18.59A6.44,6.44,0,0,1,7.41,16.3Zm11.18,0a6.44,6.44,0,0,1-2.29,2.29l3.42,1.13Zm-7.2,3L13,22.5l1.6-3.21a6.16,6.16,0,0,1-1.6.21A6.3,6.3,0,0,1,11.39,19.29Z" transform="translate(-3 -3)" fill="none" stroke="#696d72" stroke-linecap="round" stroke-linejoin="round"/><circle cx="10" cy="10" r="4.5" fill="none" stroke="#696d72" stroke-linecap="round" stroke-linejoin="round"/></svg>