<?xml version="1.0" encoding="utf-8"?>
<!-- Generator: Adobe Illustrator 25.0.0, SVG Export Plug-In . SVG Version: 6.00 Build 0)  -->
<svg version="1.1" id="Layer_1" xmlns="http://www.w3.org/2000/svg" xmlns:xlink="http://www.w3.org/1999/xlink" x="0px" y="0px"
	 viewBox="0 0 26 26" enable-background="new 0 0 26 26" xml:space="preserve">
<path fill-rule="evenodd" clip-rule="evenodd" fill="#6D7075" d="M13,22c-5,0-9-4-9-9c0-5,4-9,9-9s9,4,9,9C22,18,18,22,13,22z M13,6
	c-3.9,0-7,3.1-7,7s3.1,7,7,7s7-3.1,7-7S16.9,6,13,6z M17.2,15.7l-1.4-1.6c0.1-0.3,0.2-0.7,0.2-1.1c0-1.7-1.3-3-3-3
	c-0.2,0-0.5,0-0.7,0.1l-1.4-1.6C11.5,8.2,12.2,8,13,8c2.8,0,5,2.2,5,5C18,14,17.7,14.9,17.2,15.7z M9.5,9.5C9.5,9.4,9.5,9.4,9.5,9.5
	L9.5,9.5z M10.6,11.2C10.2,11.7,10,12.3,10,13c0,1.7,1.3,3,3,3c0.5,0,1-0.1,1.5-0.4l1.3,1.5C15,17.7,14,18,13,18c-2.8,0-5-2.2-5-5
	c0-1.3,0.5-2.4,1.3-3.3L10.6,11.2z"/>
</svg>
