<svg xmlns="http://www.w3.org/2000/svg" viewBox="0 0 20 20"><path d="M9.44,3.5,3.5,9.44v7.12L9.44,22.5h7.12l5.94-5.94V9.44L16.56,3.5Z" transform="translate(-3 -3)" fill="none"/><path d="M10.07,3.5l1.78,4.75h2.3L15.93,3.5ZM9,4,4,9l4.75,1.78,2-2ZM17,4,15.26,8.73l2,2L22,9ZM3.5,10.07v5.86l4.75-1.78v-2.3Zm19,0-4.75,1.78v2.3l4.75,1.78ZM8.73,15.26,4,17l5,5,1.78-4.75Zm8.54,0-2,2L17,22l5-5Zm-5.42,2.49L10.07,22.5h5.86l-1.78-4.75Z" transform="translate(-3 -3)" fill="none" stroke="#6d7075" stroke-linecap="round" stroke-linejoin="round"/></svg>