<?xml version="1.0" encoding="utf-8"?>
<!-- Generator: Adobe Illustrator 25.0.0, SVG Export Plug-In . SVG Version: 6.00 Build 0)  -->
<svg version="1.1" id="Layer_1" xmlns="http://www.w3.org/2000/svg" xmlns:xlink="http://www.w3.org/1999/xlink" x="0px" y="0px"
	 viewBox="0 0 24 24" enable-background="new 0 0 24 24" xml:space="preserve">
<path fill-rule="evenodd" clip-rule="evenodd" fill="#696D72" d="M5,7V5h14v2H5z M13,12H5v-2h8V12z M10,15v2H9H5v-2h4H10z
	 M15.5,18.8L12,16.1c-0.1-0.1-0.1-0.2,0-0.3l3.5-2.6c0.1-0.1,0.3,0,0.3,0.1v5.3C15.8,18.8,15.6,18.9,15.5,18.8z"/>
<path fill-rule="evenodd" clip-rule="evenodd" fill="#696D72" d="M16.1,17h-0.5v-2h0.5c0.8,0,1.5-0.7,1.5-1.5S16.9,12,16.1,12H9.6
	v-2h6.5c1.9,0,3.5,1.6,3.5,3.5S18,17,16.1,17z"/>
</svg>
